<mxfile host="app.diagrams.net" agent="Mozilla/5.0 (Windows NT 10.0; Win64; x64) AppleWebKit/537.36 (KHTML, like Gecko) Chrome/132.0.0.0 Safari/537.36" version="26.0.11">
  <diagram name="Page-1" id="NRz_4mfH-vS3rp3JnSEa">
    <mxGraphModel dx="2074" dy="1144" grid="1" gridSize="10" guides="1" tooltips="1" connect="1" arrows="1" fold="1" page="1" pageScale="1" pageWidth="850" pageHeight="1100" math="0" shadow="0">
      <root>
        <mxCell id="0" />
        <mxCell id="1" parent="0" />
        <mxCell id="Vm38wPho1VlH9DjtHU5n-22" style="rounded=0;orthogonalLoop=1;jettySize=auto;html=1;dashed=1;dashPattern=1 4;fillColor=#60a917;strokeColor=#2D7600;endArrow=none;startFill=0;" edge="1" parent="1" source="Vm38wPho1VlH9DjtHU5n-1" target="Vm38wPho1VlH9DjtHU5n-2">
          <mxGeometry relative="1" as="geometry" />
        </mxCell>
        <mxCell id="Vm38wPho1VlH9DjtHU5n-1" value="" style="sketch=0;outlineConnect=0;fontColor=#232F3E;gradientColor=none;fillColor=#232F3D;strokeColor=none;dashed=0;verticalLabelPosition=bottom;verticalAlign=top;align=center;html=1;fontSize=12;fontStyle=0;aspect=fixed;pointerEvents=1;shape=mxgraph.aws4.traditional_server;" vertex="1" parent="1">
          <mxGeometry x="120" y="360" width="45" height="78" as="geometry" />
        </mxCell>
        <mxCell id="Vm38wPho1VlH9DjtHU5n-2" value="" style="sketch=0;outlineConnect=0;fontColor=#232F3E;gradientColor=none;fillColor=#232F3D;strokeColor=none;dashed=0;verticalLabelPosition=bottom;verticalAlign=top;align=center;html=1;fontSize=12;fontStyle=0;aspect=fixed;pointerEvents=1;shape=mxgraph.aws4.traditional_server;" vertex="1" parent="1">
          <mxGeometry x="120" y="562" width="45" height="78" as="geometry" />
        </mxCell>
        <mxCell id="Vm38wPho1VlH9DjtHU5n-23" style="rounded=0;orthogonalLoop=1;jettySize=auto;html=1;dashed=1;dashPattern=1 4;fillColor=#60a917;strokeColor=#2D7600;endArrow=none;startFill=0;" edge="1" parent="1" source="Vm38wPho1VlH9DjtHU5n-3" target="Vm38wPho1VlH9DjtHU5n-2">
          <mxGeometry relative="1" as="geometry" />
        </mxCell>
        <mxCell id="Vm38wPho1VlH9DjtHU5n-3" value="" style="verticalAlign=top;verticalLabelPosition=bottom;labelPosition=center;align=center;html=1;outlineConnect=0;fillColor=#1ba1e2;strokeColor=#006EAF;gradientDirection=north;strokeWidth=2;shape=mxgraph.networks.pc;fontColor=#ffffff;" vertex="1" parent="1">
          <mxGeometry x="375" y="690" width="100" height="70" as="geometry" />
        </mxCell>
        <mxCell id="Vm38wPho1VlH9DjtHU5n-4" value="" style="verticalAlign=top;verticalLabelPosition=bottom;labelPosition=center;align=center;html=1;outlineConnect=0;fillColor=#e51400;strokeColor=#B20000;gradientDirection=north;strokeWidth=2;shape=mxgraph.networks.pc;fontColor=#ffffff;" vertex="1" parent="1">
          <mxGeometry x="610" y="480" width="100" height="70" as="geometry" />
        </mxCell>
        <mxCell id="Vm38wPho1VlH9DjtHU5n-5" value="" style="ellipse;shape=cloud;whiteSpace=wrap;html=1;" vertex="1" parent="1">
          <mxGeometry x="400" y="170" width="120" height="80" as="geometry" />
        </mxCell>
        <mxCell id="Vm38wPho1VlH9DjtHU5n-6" value="" style="sketch=0;points=[[0.015,0.015,0],[0.985,0.015,0],[0.985,0.985,0],[0.015,0.985,0],[0.25,0,0],[0.5,0,0],[0.75,0,0],[1,0.25,0],[1,0.5,0],[1,0.75,0],[0.75,1,0],[0.5,1,0],[0.25,1,0],[0,0.75,0],[0,0.5,0],[0,0.25,0]];verticalLabelPosition=bottom;html=1;verticalAlign=top;aspect=fixed;align=center;pointerEvents=1;shape=mxgraph.cisco19.rect;prIcon=workgroup_switch;fillColor=#FAFAFA;strokeColor=#005073;" vertex="1" parent="1">
          <mxGeometry x="400" y="490" width="50" height="50" as="geometry" />
        </mxCell>
        <mxCell id="Vm38wPho1VlH9DjtHU5n-7" value="" style="sketch=0;points=[[0.5,0,0],[1,0.5,0],[0.5,1,0],[0,0.5,0],[0.145,0.145,0],[0.8555,0.145,0],[0.855,0.8555,0],[0.145,0.855,0]];verticalLabelPosition=bottom;html=1;verticalAlign=top;aspect=fixed;align=center;pointerEvents=1;shape=mxgraph.cisco19.rect;prIcon=router;fillColor=#FAFAFA;strokeColor=#005073;" vertex="1" parent="1">
          <mxGeometry x="400" y="340" width="50" height="50" as="geometry" />
        </mxCell>
        <mxCell id="Vm38wPho1VlH9DjtHU5n-8" style="edgeStyle=orthogonalEdgeStyle;rounded=0;orthogonalLoop=1;jettySize=auto;html=1;exitX=0;exitY=0.5;exitDx=0;exitDy=0;exitPerimeter=0;entryX=1;entryY=0.5;entryDx=0;entryDy=0;entryPerimeter=0;" edge="1" parent="1" source="Vm38wPho1VlH9DjtHU5n-4" target="Vm38wPho1VlH9DjtHU5n-6">
          <mxGeometry relative="1" as="geometry" />
        </mxCell>
        <mxCell id="Vm38wPho1VlH9DjtHU5n-10" style="edgeStyle=orthogonalEdgeStyle;rounded=0;orthogonalLoop=1;jettySize=auto;html=1;entryX=0;entryY=0.5;entryDx=0;entryDy=0;entryPerimeter=0;" edge="1" parent="1" source="Vm38wPho1VlH9DjtHU5n-1" target="Vm38wPho1VlH9DjtHU5n-6">
          <mxGeometry relative="1" as="geometry" />
        </mxCell>
        <mxCell id="Vm38wPho1VlH9DjtHU5n-11" style="edgeStyle=orthogonalEdgeStyle;rounded=0;orthogonalLoop=1;jettySize=auto;html=1;entryX=0;entryY=0.5;entryDx=0;entryDy=0;entryPerimeter=0;" edge="1" parent="1" source="Vm38wPho1VlH9DjtHU5n-2" target="Vm38wPho1VlH9DjtHU5n-6">
          <mxGeometry relative="1" as="geometry" />
        </mxCell>
        <mxCell id="Vm38wPho1VlH9DjtHU5n-12" style="rounded=0;orthogonalLoop=1;jettySize=auto;html=1;exitX=0.5;exitY=0;exitDx=0;exitDy=0;exitPerimeter=0;entryX=0.5;entryY=0.95;entryDx=0;entryDy=0;entryPerimeter=0;" edge="1" parent="1" source="Vm38wPho1VlH9DjtHU5n-7" target="Vm38wPho1VlH9DjtHU5n-5">
          <mxGeometry relative="1" as="geometry" />
        </mxCell>
        <mxCell id="Vm38wPho1VlH9DjtHU5n-13" style="edgeStyle=orthogonalEdgeStyle;rounded=0;orthogonalLoop=1;jettySize=auto;html=1;exitX=0.5;exitY=0;exitDx=0;exitDy=0;exitPerimeter=0;entryX=0.5;entryY=1;entryDx=0;entryDy=0;entryPerimeter=0;" edge="1" parent="1" source="Vm38wPho1VlH9DjtHU5n-6" target="Vm38wPho1VlH9DjtHU5n-7">
          <mxGeometry relative="1" as="geometry" />
        </mxCell>
        <mxCell id="Vm38wPho1VlH9DjtHU5n-14" value="&lt;font style=&quot;font-size: 14px;&quot;&gt;Internet&lt;/font&gt;" style="text;html=1;align=center;verticalAlign=middle;resizable=0;points=[];autosize=1;strokeColor=none;fillColor=none;" vertex="1" parent="1">
          <mxGeometry x="425" y="195" width="70" height="30" as="geometry" />
        </mxCell>
        <mxCell id="Vm38wPho1VlH9DjtHU5n-15" value="&lt;font style=&quot;font-size: 18px;&quot;&gt;Domain: MyDFIR&lt;/font&gt;&lt;div&gt;&lt;font style=&quot;font-size: 18px;&quot;&gt;Network: 192.168.10.0/24&lt;/font&gt;&lt;/div&gt;&lt;div&gt;&lt;font style=&quot;font-size: 18px;&quot;&gt;Splunk Server: 192.168.10.10&lt;/font&gt;&lt;/div&gt;&lt;div&gt;&lt;font style=&quot;font-size: 18px;&quot;&gt;Active Directory: 192.168.10.7&lt;/font&gt;&lt;/div&gt;&lt;div&gt;&lt;font style=&quot;font-size: 18px;&quot;&gt;Attacker: 192.168.10.250&lt;/font&gt;&lt;/div&gt;" style="text;html=1;align=left;verticalAlign=middle;resizable=0;points=[];autosize=1;strokeColor=none;fillColor=none;" vertex="1" parent="1">
          <mxGeometry x="60" y="130" width="260" height="120" as="geometry" />
        </mxCell>
        <mxCell id="Vm38wPho1VlH9DjtHU5n-16" value="Active Directory&lt;div&gt;IP: 192.168.10.7&lt;/div&gt;&lt;div&gt;Splunk Universal Forwarder&lt;/div&gt;&lt;div&gt;Sysmon&lt;/div&gt;" style="text;html=1;align=center;verticalAlign=middle;resizable=0;points=[];autosize=1;strokeColor=none;fillColor=none;" vertex="1" parent="1">
          <mxGeometry x="57.5" y="438" width="170" height="70" as="geometry" />
        </mxCell>
        <mxCell id="Vm38wPho1VlH9DjtHU5n-17" value="Splunk Server&lt;div&gt;IP: 192.168.10.10&lt;/div&gt;" style="text;html=1;align=center;verticalAlign=middle;resizable=0;points=[];autosize=1;strokeColor=none;fillColor=none;" vertex="1" parent="1">
          <mxGeometry x="82.5" y="640" width="120" height="40" as="geometry" />
        </mxCell>
        <mxCell id="Vm38wPho1VlH9DjtHU5n-18" value="Windows 10&lt;div&gt;IP: DHCP&lt;/div&gt;&lt;div&gt;Splunk Universal Forwarder&lt;/div&gt;&lt;div&gt;Sysmon&lt;/div&gt;" style="text;html=1;align=center;verticalAlign=middle;resizable=0;points=[];autosize=1;strokeColor=none;fillColor=none;" vertex="1" parent="1">
          <mxGeometry x="340" y="770" width="170" height="70" as="geometry" />
        </mxCell>
        <mxCell id="Vm38wPho1VlH9DjtHU5n-19" value="Kali Linux&lt;div&gt;IP: 192.168.10.250&lt;/div&gt;" style="text;html=1;align=center;verticalAlign=middle;resizable=0;points=[];autosize=1;strokeColor=none;fillColor=none;" vertex="1" parent="1">
          <mxGeometry x="610" y="550" width="120" height="40" as="geometry" />
        </mxCell>
        <mxCell id="Vm38wPho1VlH9DjtHU5n-21" style="edgeStyle=orthogonalEdgeStyle;rounded=0;orthogonalLoop=1;jettySize=auto;html=1;exitX=0.5;exitY=0.07;exitDx=0;exitDy=0;exitPerimeter=0;entryX=0.5;entryY=1;entryDx=0;entryDy=0;entryPerimeter=0;" edge="1" parent="1" source="Vm38wPho1VlH9DjtHU5n-3" target="Vm38wPho1VlH9DjtHU5n-6">
          <mxGeometry relative="1" as="geometry" />
        </mxCell>
      </root>
    </mxGraphModel>
  </diagram>
</mxfile>
